<svg width="23" height="22" viewBox="0 0 23 22" fill="none" xmlns="http://www.w3.org/2000/svg">
<path d="M11.7671 3.31971C11.6957 3.25147 11.6008 3.21338 11.5021 3.21338C11.4034 3.21338 11.3085 3.25147 11.2371 3.31971L2.41569 11.7468C2.37823 11.7826 2.34842 11.8257 2.32808 11.8734C2.30774 11.9211 2.29728 11.9724 2.29734 12.0242L2.2959 19.9333C2.2959 20.34 2.45745 20.73 2.745 21.0176C3.03256 21.3051 3.42256 21.4667 3.82923 21.4667H8.43401C8.63734 21.4667 8.83234 21.3859 8.97612 21.2421C9.1199 21.0983 9.20067 20.9033 9.20067 20.7V14.1833C9.20067 14.0817 9.24106 13.9842 9.31295 13.9123C9.38484 13.8404 9.48234 13.8 9.58401 13.8H13.4173C13.519 13.8 13.6165 13.8404 13.6884 13.9123C13.7603 13.9842 13.8007 14.0817 13.8007 14.1833V20.7C13.8007 20.9033 13.8814 21.0983 14.0252 21.2421C14.169 21.3859 14.364 21.4667 14.5673 21.4667H19.1702C19.5769 21.4667 19.9669 21.3051 20.2544 21.0176C20.542 20.73 20.7035 20.34 20.7035 19.9333V12.0242C20.7036 11.9724 20.6931 11.9211 20.6728 11.8734C20.6524 11.8257 20.6226 11.7826 20.5852 11.7468L11.7671 3.31971Z" fill="#707070"/>
<path d="M22.7561 10.1655L19.1719 6.73658V1.53333C19.1719 1.33 19.0911 1.13499 18.9474 0.991215C18.8036 0.847438 18.6086 0.766665 18.4052 0.766665H16.1052C15.9019 0.766665 15.7069 0.847438 15.5631 0.991215C15.4194 1.13499 15.3386 1.33 15.3386 1.53333V3.06666L12.5633 0.41304C12.3035 0.150458 11.9173 0 11.5 0C11.0841 0 10.6988 0.150458 10.4391 0.41352L0.247268 10.1645C-0.0507734 10.452 -0.0881483 10.925 0.183059 11.2364C0.251164 11.315 0.334553 11.379 0.428152 11.4243C0.521751 11.4697 0.623602 11.4956 0.727507 11.5003C0.831411 11.5051 0.935196 11.4886 1.03254 11.452C1.12989 11.4153 1.21877 11.3593 1.29376 11.2872L11.2364 1.78633C11.3078 1.71809 11.4027 1.68 11.5014 1.68C11.6001 1.68 11.6951 1.71809 11.7664 1.78633L21.71 11.2872C21.8565 11.4277 22.0527 11.5043 22.2556 11.5004C22.4585 11.4964 22.6516 11.4122 22.7925 11.2661C23.0867 10.9614 23.0623 10.4583 22.7561 10.1655Z" fill="#707070"/>
</svg>
