<svg width="36" height="35" viewBox="0 0 36 35" fill="none" xmlns="http://www.w3.org/2000/svg">
<path d="M18.232 0.727998L32.44 34.712H28.36L17.272 5.288L18.232 0.727998ZM7.912 31.496C7.688 32.136 7.656 32.68 7.816 33.128C7.976 33.576 8.232 33.928 8.584 34.184C8.968 34.408 9.352 34.52 9.736 34.52H10.168V35H0.52V34.52C0.52 34.52 0.6 34.52 0.76 34.52C0.888 34.52 0.952 34.52 0.952 34.52C1.688 34.52 2.44 34.296 3.208 33.848C4.008 33.368 4.664 32.584 5.176 31.496H7.912ZM18.232 0.727998L18.664 4.088L6.616 34.856H3.736L16.024 5.672C16.024 5.672 16.104 5.48 16.264 5.096C16.456 4.68 16.664 4.184 16.888 3.608C17.144 3.032 17.352 2.472 17.512 1.928C17.704 1.384 17.8 0.983998 17.8 0.727998H18.232ZM25 21.896V23.336H9.976V21.896H25ZM27.16 31.496H31.096C31.576 32.584 32.216 33.368 33.016 33.848C33.816 34.296 34.584 34.52 35.32 34.52C35.32 34.52 35.384 34.52 35.512 34.52C35.64 34.52 35.704 34.52 35.704 34.52V35H24.904V34.52H25.336C25.944 34.52 26.488 34.264 26.968 33.752C27.448 33.208 27.512 32.456 27.16 31.496Z" fill="#BA8B85"/>
</svg>
