<svg width="23" height="22" viewBox="0 0 23 22" fill="none" xmlns="http://www.w3.org/2000/svg">
<path d="M12.9374 0L0 12.9374L7.90619 20.8436L20.8436 7.90619V0H12.9374ZM16.5311 5.74996C16.2468 5.74996 15.9689 5.66565 15.7325 5.5077C15.4961 5.34974 15.3119 5.12524 15.2031 4.86257C15.0943 4.5999 15.0658 4.31087 15.1213 4.03203C15.1767 3.75318 15.3136 3.49705 15.5147 3.29601C15.7157 3.09497 15.9718 2.95806 16.2507 2.9026C16.5295 2.84713 16.8186 2.8756 17.0812 2.9844C17.3439 3.0932 17.5684 3.27745 17.7264 3.51384C17.8843 3.75024 17.9686 4.02816 17.9686 4.31247C17.9686 4.69371 17.8172 5.05934 17.5476 5.32893C17.278 5.59851 16.9124 5.74996 16.5311 5.74996Z" fill="#707070"/>
<path d="M21.563 2.15625V8.62495L9.74414 20.4438L10.8717 21.5624L23.0005 9.3437V2.15625H21.563Z" fill="#707070"/>
</svg>
