<svg width="23" height="23" viewBox="0 0 23 23" fill="none" xmlns="http://www.w3.org/2000/svg">
<path d="M19.7616 5.03125H18.6915C18.6905 5.03125 18.6894 5.03168 18.6887 5.03243C18.6879 5.03319 18.6875 5.03422 18.6875 5.03529V18.6875C18.6875 19.0687 18.839 19.4344 19.1085 19.704C19.3781 19.9735 19.7438 20.125 20.125 20.125C20.5062 20.125 20.8719 19.9735 21.1415 19.704C21.411 19.4344 21.5625 19.0687 21.5625 18.6875V6.83217C21.5625 6.35453 21.3728 5.89646 21.035 5.55873C20.6973 5.22099 20.2392 5.03125 19.7616 5.03125Z" fill="#707070"/>
<path d="M17.25 18.6875V3.23438C17.25 2.99841 17.2035 2.76475 17.1132 2.54674C17.0229 2.32873 16.8906 2.13065 16.7237 1.96379C16.5569 1.79694 16.3588 1.66458 16.1408 1.57428C15.9228 1.48398 15.6891 1.4375 15.4531 1.4375H3.23438C2.75781 1.4375 2.30077 1.62681 1.96379 1.96379C1.62681 2.30077 1.4375 2.75781 1.4375 3.23438V19.0469C1.4375 19.7141 1.70254 20.3539 2.17431 20.8257C2.64608 21.2975 3.28594 21.5625 3.95312 21.5625H19.3546C19.3614 21.5626 19.3681 21.5613 19.3744 21.5587C19.3807 21.5561 19.3864 21.5523 19.3913 21.5475C19.3961 21.5427 19.3999 21.537 19.4024 21.5307C19.405 21.5244 19.4063 21.5176 19.4062 21.5108C19.4062 21.4995 19.4025 21.4886 19.3956 21.4796C19.3887 21.4707 19.379 21.4643 19.3681 21.4614C18.7601 21.2946 18.2236 20.9329 17.841 20.4319C17.4584 19.9308 17.2507 19.318 17.25 18.6875ZM4.3125 5.75C4.3125 5.55938 4.38823 5.37656 4.52302 5.24177C4.65781 5.10698 4.84063 5.03125 5.03125 5.03125H7.90625C8.09687 5.03125 8.27969 5.10698 8.41448 5.24177C8.54927 5.37656 8.625 5.55938 8.625 5.75V8.625C8.625 8.81562 8.54927 8.99844 8.41448 9.13323C8.27969 9.26802 8.09687 9.34375 7.90625 9.34375H5.03125C4.84063 9.34375 4.65781 9.26802 4.52302 9.13323C4.38823 8.99844 4.3125 8.81562 4.3125 8.625V5.75ZM13.6562 17.9688H5.05146C4.66469 17.9688 4.33271 17.6714 4.3134 17.2846C4.30872 17.1874 4.32381 17.0903 4.35777 16.9991C4.39174 16.9079 4.44386 16.8246 4.51097 16.7542C4.57809 16.6837 4.65881 16.6277 4.74824 16.5893C4.83768 16.551 4.93396 16.5313 5.03125 16.5312H13.636C14.0228 16.5312 14.3548 16.8286 14.3741 17.2154C14.3788 17.3126 14.3637 17.4097 14.3297 17.5009C14.2958 17.5921 14.2436 17.6754 14.1765 17.7458C14.1094 17.8163 14.0287 17.8723 13.9393 17.9107C13.8498 17.949 13.7535 17.9687 13.6562 17.9688ZM13.6562 15.0938H5.05146C4.66469 15.0938 4.33271 14.7964 4.3134 14.4096C4.30872 14.3124 4.32381 14.2153 4.35777 14.1241C4.39174 14.0329 4.44386 13.9496 4.51097 13.8792C4.57809 13.8087 4.65881 13.7527 4.74824 13.7143C4.83768 13.676 4.93396 13.6563 5.03125 13.6562H13.636C14.0228 13.6562 14.3548 13.9536 14.3741 14.3404C14.3788 14.4376 14.3637 14.5347 14.3297 14.6259C14.2958 14.7171 14.2436 14.8004 14.1765 14.8708C14.1094 14.9413 14.0287 14.9973 13.9393 15.0357C13.8498 15.074 13.7535 15.0937 13.6562 15.0938ZM13.6562 12.2188H5.05146C4.66469 12.2188 4.33271 11.9214 4.3134 11.5346C4.30872 11.4374 4.32381 11.3403 4.35777 11.2491C4.39174 11.1579 4.44386 11.0746 4.51097 11.0042C4.57809 10.9337 4.65881 10.8777 4.74824 10.8393C4.83768 10.801 4.93396 10.7813 5.03125 10.7812H13.636C14.0228 10.7812 14.3548 11.0786 14.3741 11.4654C14.3788 11.5626 14.3637 11.6597 14.3297 11.7509C14.2958 11.8421 14.2436 11.9254 14.1765 11.9958C14.1094 12.0663 14.0287 12.1223 13.9393 12.1607C13.8498 12.199 13.7535 12.2187 13.6562 12.2188ZM13.6562 9.34375H10.8015C10.4147 9.34375 10.0827 9.04637 10.0634 8.65959C10.0587 8.56241 10.0738 8.46529 10.1078 8.37411C10.1417 8.28294 10.1939 8.19961 10.261 8.12917C10.3281 8.05873 10.4088 8.00266 10.4982 7.96434C10.5877 7.92602 10.684 7.90626 10.7812 7.90625H13.636C14.0228 7.90625 14.3548 8.20363 14.3741 8.59041C14.3788 8.68759 14.3637 8.78471 14.3297 8.87589C14.2958 8.96706 14.2436 9.05039 14.1765 9.12083C14.1094 9.19127 14.0287 9.24734 13.9393 9.28566C13.8498 9.32398 13.7535 9.34374 13.6562 9.34375ZM13.6562 6.46875H10.8015C10.4147 6.46875 10.0827 6.17137 10.0634 5.78459C10.0587 5.68741 10.0738 5.59029 10.1078 5.49911C10.1417 5.40794 10.1939 5.32461 10.261 5.25417C10.3281 5.18373 10.4088 5.12766 10.4982 5.08934C10.5877 5.05102 10.684 5.03126 10.7812 5.03125H13.636C14.0228 5.03125 14.3548 5.32863 14.3741 5.71541C14.3788 5.81259 14.3637 5.90971 14.3297 6.00089C14.2958 6.09206 14.2436 6.17539 14.1765 6.24583C14.1094 6.31627 14.0287 6.37234 13.9393 6.41066C13.8498 6.44898 13.7535 6.46874 13.6562 6.46875Z" fill="#707070"/>
</svg>
