<svg width="23" height="17" viewBox="0 0 23 17" fill="none" xmlns="http://www.w3.org/2000/svg">
<path d="M6.51641 8.4332C8.42179 8.4332 9.96641 6.88859 9.96641 4.9832C9.96641 3.07782 8.42179 1.5332 6.51641 1.5332C4.61102 1.5332 3.06641 3.07782 3.06641 4.9832C3.06641 6.88859 4.61102 8.4332 6.51641 8.4332Z" fill="#707070"/>
<path d="M10.4458 10.3499C9.0965 9.66473 7.60725 9.3916 6.51667 9.3916C4.38054 9.3916 0 10.7016 0 13.3208V15.3333H7.1875V14.5632C7.1875 13.6528 7.57083 12.74 8.24167 11.9791C8.7769 11.3715 9.52631 10.8075 10.4458 10.3499Z" fill="#707070"/>
<path d="M15.5248 9.9668C13.0298 9.9668 8.0498 11.5078 8.0498 14.5668V16.8668H22.9998V14.5668C22.9998 11.5078 18.0198 9.9668 15.5248 9.9668Z" fill="#707070"/>
<path d="M15.5253 8.43333C17.8541 8.43333 19.7419 6.54547 19.7419 4.21667C19.7419 1.88787 17.8541 0 15.5253 0C13.1965 0 11.3086 1.88787 11.3086 4.21667C11.3086 6.54547 13.1965 8.43333 15.5253 8.43333Z" fill="#707070"/>
</svg>
