<svg width="658" height="467" viewBox="0 0 658 467" fill="none" xmlns="http://www.w3.org/2000/svg">
<path d="M217.936 345.4C186.8 314.264 171.342 273.493 171.493 232.728H262.436L189.561 159.78L131.321 101.54L0.132812 232.728H97.2008C97.0498 292.535 119.747 352.343 165.373 397.968C244.821 477.416 367.426 487.495 457.839 428.056L403.558 373.775C343.751 405.061 268.185 395.649 217.945 345.4H217.936Z" fill="#707070"/>
<path d="M562.895 234.16C563.119 174.28 540.348 114.321 494.723 68.6268C414.978 -11.1186 291.923 -20.8999 201.43 39.1321L255.638 93.3401C315.596 61.4601 391.678 70.7934 442.158 121.267C473.294 152.403 488.824 193.319 488.6 234.236H394.97L526.084 365.424L657.272 234.236H562.97L562.895 234.16Z" fill="#707070"/>
</svg>
